<svg xmlns="http://www.w3.org/2000/svg" viewBox="0 0 199.79 199.79">
  <path fill="#378add" d="M176.74,0H23.05C10.32,0,0,10.32,0,23.05v153.69c0,12.73,10.32,23.05,23.05,23.05h153.69c12.73,0,23.05-10.32,23.05-23.05V23.05c0-12.73-10.32-23.05-23.05-23.05Z"/>
  <path fill="#ffffff" d="M106.25,83.66c-2.67,5.33-9.09,7.56-14.49,5.04l-35.47-16.55v57.66l10.13-2.99c5.89-1.74,12.07,1.66,13.75,7.56h0c.85,2.98-.88,6.09-3.87,6.93l-25.45,7.15c-5.38,1.51-10.72-2.51-10.74-8.1-.07-19.68-.2-60.54-.05-81.04.04-5.85,6.12-9.68,11.42-7.21l52.27,24.36c2.71,1.26,3.84,4.51,2.5,7.19h0ZM116.11,68.11h0c2.3,4.85,7.69,7.42,12.9,6.14l13.91-3.4v57.75l-33.88-16.72c-5.14-2.54-11.37-.66-14.25,4.3h0c-1.97,3.39-.59,7.74,2.98,9.38l49.38,22.64c5.85,2.68,12.51-1.59,12.51-8.03V59.43c0-5.75-5.49-9.9-11.02-8.35l-28.4,7.98c-3.88,1.09-5.85,5.41-4.12,9.05Z"/>
</svg>