<?xml version="1.0" standalone="no"?><!DOCTYPE svg PUBLIC "-//W3C//DTD SVG 1.1//EN" "http://www.w3.org/Graphics/SVG/1.1/DTD/svg11.dtd"><svg t="1783673227453" class="icon" viewBox="0 0 1024 1024" version="1.1" xmlns="http://www.w3.org/2000/svg" p-id="6094" xmlns:xlink="http://www.w3.org/1999/xlink" width="200" height="200"><path fill="white" d="M390.816 273.056c-0.416-2.144-2.56-3.424-5.536-3.424H274.784a4.256 4.256 0 0 0-3.424 4.736v-0.032 0.224c0 9.728-0.928 19.232-2.72 28.448L268.8 302.08c-1.696 5.12-2.976 8.96-4.256 13.216L127.168 709.12c-1.28 5.12 0 7.68 4.704 7.68h80.224l0.768 0.032c3.616 0 6.624-2.56 7.328-5.952v-0.064l32.416-100.704h158.72l34.976 102.4a6.464 6.464 0 0 0 6.208 4.736l0.64-0.032h-0.032 89.184c4.256 0 5.536-2.144 4.256-6.816z m-113.472 252.16c6.4-17.92 13.216-37.984 18.784-59.744 6.816-21.344 13.216-42.656 19.616-63.136a466.24 466.24 0 0 0 13.888-51.616l0.608-3.424h0.864c2.976 10.24 5.984 21.344 9.376 33.28 3.424 12.384 7.264 24.736 11.52 37.984s8.096 26.016 12.384 39.264c3.84 12.8 7.68 25.184 11.52 36.704 3.84 11.104 7.264 21.76 9.824 30.72z m592.64-57.6a156.416 156.416 0 0 0-25.856-48.992l0.256 0.352c-11.84-14.624-26.88-26.24-44.064-33.824l-0.736-0.288a151.68 151.68 0 0 0-62.56-13.28l-3.744 0.032h0.192c-27.296 0-51.2 3.424-71.264 13.216a155.584 155.584 0 0 0-51.424 40.288l-0.192 0.256a173.568 173.568 0 0 0-31.648 57.216l-0.352 1.216a216.768 216.768 0 0 0-10.656 67.84c0 22.208 3.264 43.648 9.376 63.872l-0.416-1.568c6.336 21.504 16.448 40.16 29.664 56.16l-0.224-0.256c14.304 17.312 32.32 31.072 52.832 40.16l0.928 0.352c22.176 9.824 49.504 14.944 81.92 14.944l6.144 0.064c19.264 0 38.08-1.888 56.256-5.504l-1.824 0.288a182.24 182.24 0 0 0 43.808-13.248l-1.152 0.448a10.048 10.048 0 0 0 2.976-2.944l0.032-0.032a20.608 20.608 0 0 0 0.864-5.088v-65.312c0-4.256-1.28-5.12-3.424-3.424-11.008 4.48-23.808 7.936-37.152 9.728l-0.832 0.096c-13.184 2.688-28.48 4.384-44.128 4.704h-0.256l-2.432 0.032c-18.848 0-36.8-3.936-53.024-11.008l0.864 0.32a67.968 67.968 0 0 1-30.976-25.344l-0.16-0.256a93.056 93.056 0 0 1-13.184-37.504l-0.032-0.448h135.264c11.104 0 21.344 1.696 31.136 1.696h1.952c8.032 0 15.936-0.48 23.744-1.376l-0.96 0.096c6.816-0.416 11.52-0.864 14.08-0.864a6.4 6.4 0 0 0 5.984-5.504v-0.032c0.416-3.84 0.864-9.824 1.696-17.92 0.416-8.096 0.864-17.056 0.864-27.296v-0.512c0-18.4-2.976-36.128-8.448-52.704l0.352 1.184z m-81.504 37.12a20.864 20.864 0 0 1-9.728 3.424h-0.064c-5.12 0.416-13.216 0.416-24.32 0.416h-90.016c1.344-11.424 4.672-21.824 9.632-31.2l-0.224 0.48a60.16 60.16 0 0 1 56.896-32.416h-0.16l1.664-0.032c25.056 0 46.272 16.32 53.664 38.88l0.128 0.384c1.632 4.672 2.56 10.048 2.56 15.616v0.16z" p-id="6095"></path></svg>