<?xml version="1.0" standalone="no"?><!DOCTYPE svg PUBLIC "-//W3C//DTD SVG 1.1//EN" "http://www.w3.org/Graphics/SVG/1.1/DTD/svg11.dtd"><svg t="1783673365732" class="icon" viewBox="0 0 1024 1024" version="1.1" xmlns="http://www.w3.org/2000/svg" p-id="11372" xmlns:xlink="http://www.w3.org/1999/xlink" width="200" height="200"><path d="M511.999431 0a511.999431 511.999431 0 1 1-15.075539 0.227555L511.999431 0z" fill="white" p-id="11373"></path><path d="M305.492994 417.56398a215.210428 215.210428 0 0 1-2.90133-35.384849C302.591664 265.386372 396.28756 170.666477 511.885653 170.666477c115.541205 0 209.237101 94.719895 209.237101 211.512654 0 11.889765-0.910221 23.72264-2.844441 35.384849C824.319084 418.132869 910.221211 505.28655 910.221211 612.692653c0 107.747436-86.414126 195.128672-193.080674 195.128672a191.487787 191.487787 0 0 1-137.500292-58.197269 48.753724 48.753724 0 0 1 0.284444-68.209702 47.559058 47.559058 0 0 1 69.461256 1.877331c17.521758 17.237314 41.471954 27.875525 67.868369 27.875525a97.84878 97.84878 0 0 0 97.279892-98.417669 97.84878 97.84878 0 0 0-97.279892-98.360779c-23.779529 0-46.648837 8.70399-64.341262 24.575972l-0.113777-0.113777-1.592887 1.649776c-1.877331 1.706665-3.754662 3.583996-5.461328 5.518216l-3.697773 3.697774v0.113777L444.870617 749.225834a191.487787 191.487787 0 0 1-138.012291 58.595491C200.248666 807.821325 113.777651 720.440088 113.777651 612.692653c0-107.292325 85.674571-194.389117 191.715343-195.128673z m1.422221 293.546341a97.84878 97.84878 0 0 0 97.279891-98.36078 97.84878 97.84878 0 0 0-97.279891-98.360779 97.84878 97.84878 0 0 0-97.279892 98.417668 97.84878 97.84878 0 0 0 97.279892 98.303891z m204.970438-214.243318a114.118984 114.118984 0 0 0 113.493208-114.687872 114.118984 114.118984 0 0 0-113.493208-114.687873 114.118984 114.118984 0 0 0-113.493207 114.687873c0 63.317263 50.801721 114.687873 113.493207 114.687872z" fill="white" p-id="11374"></path><path d="M624.753084 399.075112a44.373284 44.373284 0 0 1-0.284445-5.119994c0-25.486194 21.617754-46.079949 48.298613-46.079949s48.298613 20.593755 48.298613 46.079949a39.822178 39.822178 0 0 1-0.398221 5.688882c-6.485326 104.390995-97.450558 187.164236-208.668213 187.164237S309.816545 504.034996 303.331219 399.644a44.373284 44.373284 0 0 1-0.398222-5.688882c0-25.486194 21.617754-46.079949 48.355502-46.079949 26.62397 0 48.241724 20.593755 48.241724 46.079949 0 1.706665-0.056889 3.41333-0.284444 5.119994 5.973327 54.27194 54.158162 96.540337 112.753652 96.540337 58.538602 0 106.723437-42.268397 112.753653-96.540337z" fill="#FF436A" p-id="11375"></path></svg>