<?xml version="1.0" standalone="no"?><!DOCTYPE svg PUBLIC "-//W3C//DTD SVG 1.1//EN" "http://www.w3.org/Graphics/SVG/1.1/DTD/svg11.dtd"><svg t="1783673473231" class="icon" viewBox="0 0 1024 1024" version="1.1" xmlns="http://www.w3.org/2000/svg" p-id="15654" xmlns:xlink="http://www.w3.org/1999/xlink" width="200" height="200"><path fill="white" d="M153.4 693.8H64V330.2h89.4v363.6z m203.5-363.6c104.4 0 169.6 55.5 169.6 177.6 0 129.6-71.5 186-174.5 186H230.7V330.2h126.2z m0 303c47.8 0 80.7-32.6 80.7-121.2 0-86.7-32.9-121.2-89.9-121.2h-30v242.4h39.2z m603.1-303v363.6h-79.7V551.6c0-49.9 1-99.3 5.3-149.2h-4.8l-72 291.3h-71l-73.5-291.3h-4.8c3.9 49.4 4.8 98.3 4.8 149.2v142.2h-79.7V330.2H717l36.2 143.6c9.7 37.3 17.9 88.6 20.3 124h4.8c1.9-35.4 9.7-87.6 18.4-123.5l35.3-144h128z" p-id="15655"></path></svg>