<?xml version="1.0" standalone="no"?><!DOCTYPE svg PUBLIC "-//W3C//DTD SVG 1.1//EN" "http://www.w3.org/Graphics/SVG/1.1/DTD/svg11.dtd"><svg t="1783673241357" class="icon" viewBox="0 0 1024 1024" version="1.1" xmlns="http://www.w3.org/2000/svg" p-id="6318" xmlns:xlink="http://www.w3.org/1999/xlink" width="200" height="200"><path fill="white" d="M896 314.88v-98.56l-103.04 59.52A128 128 0 0 0 682.666667 213.333333H256a128 128 0 0 0-128 128v23.68L384 512 128 659.84V682.666667a128 128 0 0 0 128 128h426.666667a128 128 0 0 0 109.44-62.506667L896 807.68v-98.56L554.666667 512z m-177.066667 390.613333A42.666667 42.666667 0 0 1 682.666667 725.333333H256a42.666667 42.666667 0 0 1-35.413333-19.84L469.333333 561.28zM469.333333 462.72l-249.6-144.213333A42.666667 42.666667 0 0 1 256 298.666667h426.666667a42.666667 42.666667 0 0 1 35.413333 19.84z" p-id="6319"></path></svg>