<?xml version="1.0" standalone="no"?><!DOCTYPE svg PUBLIC "-//W3C//DTD SVG 1.1//EN" "http://www.w3.org/Graphics/SVG/1.1/DTD/svg11.dtd"><svg t="1783673295272" class="icon" viewBox="0 0 1024 1024" version="1.1" xmlns="http://www.w3.org/2000/svg" p-id="8478" xmlns:xlink="http://www.w3.org/1999/xlink" width="200" height="200"><path fill="white" d="M295.010358 311.476547C320.917558 306.759411 356.833011 303.232 405.691284 303.232 458.681937 303.232 497.537347 314.415158 522.858442 335.607916 546.407747 355.041011 561.719242 386.240674 561.719242 423.332379 561.719242 461.012884 549.947284 492.217937 527.574232 513.416084 498.725726 542.263242 453.390821 555.805642 402.169263 555.805642 388.626863 555.805642 376.260716 555.218189 366.837221 553.447747L366.837221 702.996211 295.010358 702.996211 295.010358 311.476547ZM366.837221 496.346274C375.673263 498.704168 387.450611 499.286232 402.169263 499.286232 456.330779 499.286232 489.299537 472.796968 489.299537 426.279074 489.299537 382.125811 458.681937 358.569768 408.636632 358.569768 388.626863 358.569768 374.497011 360.340211 366.837221 362.109305L366.837221 496.346274ZM577.583158 499.875032C577.583158 449.240926 619.390653 409.791326 685.923705 409.791326 717.710821 409.791326 745.389811 418.035874 761.865432 426.867874L747.740968 478.088084C735.374821 471.019789 712.407579 461.607074 687.099958 461.607074 661.198147 461.607074 647.062905 473.973221 647.062905 491.623747 647.062905 509.888674 660.603958 518.713937 697.108211 531.667537 748.917221 550.507789 773.048589 577.003789 773.649516 619.386611 773.649516 671.196968 733.023663 709.475705 657.064421 709.475705 622.330611 709.475705 591.124211 700.638316 569.939537 688.866358L584.062653 636.468547C600.5504 646.482189 631.7568 657.067116 657.664 657.067116 689.457853 657.067116 703.575579 644.118905 703.575579 625.285389 703.575579 605.850947 691.807663 595.837305 656.487747 583.471158 600.5504 564.048842 577.001095 533.425853 577.583158 499.875032Z" p-id="8479"></path></svg>