<?xml version="1.0" encoding="UTF-8"?><svg id="a" xmlns="http://www.w3.org/2000/svg" viewBox="0 0 205 256"><defs><style>.b{fill:#fff;}.c{fill:white;}</style></defs><path class="b" d="m27.76,245.86c-9.66,0-17.52-7.86-17.52-17.51V27.71c0-9.66,7.86-17.51,17.52-17.51,3.47,0,6.84,1.04,9.75,3l149.04,100.31c4.84,3.26,7.73,8.68,7.73,14.52s-2.89,11.26-7.73,14.52L37.51,242.86c-2.91,1.96-6.28,3-9.75,3h0Z"/><path class="c" d="m27.76,19.7c1.5,0,3.04.43,4.44,1.38l149.04,100.31c4.71,3.17,4.71,10.1,0,13.27L32.2,234.98c-1.41.95-2.94,1.38-4.44,1.38-4.16,0-8.02-3.31-8.02-8.01V27.71c0-4.71,3.86-8.01,8.02-8.01m0-19C12.86.7.74,12.82.74,27.71v200.63c0,14.9,12.12,27.01,27.02,27.01,5.36,0,10.57-1.6,15.05-4.61l149.04-100.31c7.47-5.03,11.92-13.4,11.92-22.4,0-9-4.46-17.37-11.92-22.4L42.81,5.32c-4.49-3.02-9.69-4.61-15.05-4.61h0Z"/></svg>