<?xml version="1.0" standalone="no"?><!DOCTYPE svg PUBLIC "-//W3C//DTD SVG 1.1//EN" "http://www.w3.org/Graphics/SVG/1.1/DTD/svg11.dtd"><svg t="1783673201296" class="icon" viewBox="0 0 1024 1024" version="1.1" xmlns="http://www.w3.org/2000/svg" p-id="5112" xmlns:xlink="http://www.w3.org/1999/xlink" width="200" height="200"><path fill="white" d="M524.8 314.88a152.064 152.064 0 0 0-56.096-34.656l-1.056-0.32c-23.904-8.96-52.896-13.216-87.904-13.216-12.8 0-25.6 0-38.816 0.416s-25.6 0.416-37.12 0.864-22.176 0.416-32.416 0.864c-9.824 0.416-16.64 0.416-23.904 0.416-2.976 0-4.256 1.696-4.256 4.704v439.04c0 3.84 1.696 5.536 5.12 5.536h82.784a5.312 5.312 0 0 0 4.736-5.28l-0.064-0.736v0.032-136.96c8.096 0 14.08 0 18.336 0.416s11.104 0.416 21.344 0.416c34.976 0 66.976-3.84 96-14.496a147.424 147.424 0 0 0 68.416-51.616l0.288-0.416q25.6-35.84 25.6-90.88a162.752 162.752 0 0 0-10.176-56.608l0.384 1.12a136.576 136.576 0 0 0-31.136-48.64z m-65.28 150.624a73.376 73.376 0 0 1-34.464 22.464l-0.512 0.128c-14.592 4.864-31.424 7.68-48.864 7.68h-22.784c-5.12 0-10.656-0.416-16.64-0.864v-143.36a91.904 91.904 0 0 1 17.792-0.416l-0.288-0.032c8.096-0.416 17.92-0.416 29.024-0.416a124.768 124.768 0 0 1 51.2 8.832l-0.832-0.288c12.512 4.896 22.72 13.344 29.728 24.064l0.16 0.256c6.176 10.24 9.856 22.624 9.856 35.872l-0.032 2.208v-0.096c0 18.784-4.256 33.28-13.216 43.936z m365.664-96.448h-0.64c-23.584 0-45.728 6.176-64.864 16.992l0.672-0.352a159.904 159.904 0 0 0-45.472 36.48l-0.192 0.224a135.2 135.2 0 0 0-3.008-28.576 44.448 44.448 0 0 0-2.656-10.976l0.096 0.288a9.6 9.6 0 0 0-8.96-6.816h-74.688c-0.416-0.416-1.28-0.416-1.28 0a3.968 3.968 0 0 0-2.976 4.736v-0.032c0.864 9.824 1.696 19.2 1.696 29.024 0.416 11.104 0.416 22.176 0.864 33.28s0.416 21.76 0.416 32v238.08a5.92 5.92 0 0 0 6.848 5.12h-0.032 84.064c3.84 0 5.536-1.696 5.536-5.984v-217.6a66.56 66.56 0 0 1 21.344-15.616l0.416-0.16a168.32 168.32 0 0 1 34.688-11.328l1.152-0.192a180.256 180.256 0 0 1 46.368-4.256h-0.32c4.704 0 6.816-1.28 6.816-4.704v-84.896a5.312 5.312 0 0 0-5.28-4.736l-0.736 0.064h0.032z" p-id="5113"></path></svg>