<?xml version="1.0" standalone="no"?><!DOCTYPE svg PUBLIC "-//W3C//DTD SVG 1.1//EN" "http://www.w3.org/Graphics/SVG/1.1/DTD/svg11.dtd"><svg t="1783673318694" class="icon" viewBox="0 0 1024 1024" version="1.1" xmlns="http://www.w3.org/2000/svg" p-id="9540" xmlns:xlink="http://www.w3.org/1999/xlink" width="200" height="200"><path fill="white" d="M395.4 578.4c6.2-2.7 13.6-5.1 22.2-11.3 12.8-8.9 22.5-28-1.2-50.9-78.5-128.3-49.8-213.4-38.1-245.3-9.7-4.3-21.4-7-34.2-7h-3.9c-75 0-94.9 77.4-96.4 120.9-1.2 102.2 54 143.1 54 143.1s3.5 5.4 3.5 21c0 3.5-1.9 14.4-5.4 17.5-30.7 28.4-133.7 57.9-140.7 119-3.9 17.5-1.6 35.8-0.8 52.9 16.7 14.8 70.8 27.2 70.8 27.2s4.3-15.5 8.9-40.8c6.2-37.8 51.3-98.8 161.3-146.3zM871.2 685c-7.4-61-112.7-90.2-144.6-118.6-3.5-3.1-5.8-14-5.8-17.5 0-15.5 3.5-21 3.5-21s56.4-40.8 55.6-143.1c-1.6-43.5-25.3-120.9-98.7-120.9h-4.3c-15.9 0-29.2 3.5-40.4 8.9 15.9 59.9 34.6 169.5-44.7 243-31.1 52.9 72.7 83.6 56.4 75.4C742.3 639 767.6 676 774.5 714c5.8 31.9 8.9 51.3 8.9 51.3s70.4-12 88.6-27.6c0.8-17 3.1-35.2-0.8-52.7zM564.9 567.9c-4.3-3.9-7-17.1-7-21.8 0-19.4 4.3-26 4.3-26s69.6-42.8 68-177.7c-1.9-54-31.1-150.1-121.3-150.1h-5.1c-94.5 0-119.3 96-121.3 150.1-1.2 127.1 68 177.7 68 177.7s8.5 10.9 8.5 30.3c0 4.3-6.6 13.2-11.3 17.5-38.9 35-178.1 70.4-187.4 146.2-7 32.3-48.2 83.2 89.4 103.4 37.7 5.4 89.4 8.9 159 8.9 319.2 0 253.1-70.4 244.1-111.2-8.7-75.3-149.1-112.3-187.9-147.3z m0 0" p-id="9541"></path></svg>