<svg xmlns="http://www.w3.org/2000/svg" viewBox="0 0 989 200">
  <defs>
    <style>
      .st0 {
        fill: #fff;
      }

      .st1 {
        fill: #378add;
      }

      .st2 {
        fill: currentColor;
      }
    </style>
  </defs>
  <path class="st1" d="M176.84.1H23.16C10.43.1.1,10.43.1,23.16v153.69c0,12.73,10.32,23.05,23.05,23.05h153.69c12.73,0,23.05-10.32,23.05-23.05V23.16C199.89,10.43,189.57.1,176.84.1Z"/>
  <path class="st0" d="M106.36,83.76c-2.67,5.33-9.09,7.56-14.49,5.04l-35.47-16.55v57.66l10.13-2.99c5.89-1.74,12.07,1.66,13.75,7.56h0c.85,2.98-.88,6.09-3.87,6.93l-25.45,7.15c-5.38,1.51-10.72-2.51-10.74-8.1-.07-19.68-.2-60.54-.05-81.04.04-5.85,6.12-9.68,11.42-7.21l52.27,24.36c2.71,1.26,3.84,4.51,2.5,7.19h0ZM116.21,68.22h0c2.3,4.85,7.69,7.42,12.9,6.14l13.91-3.4v57.75l-33.88-16.72c-5.14-2.54-11.37-.66-14.25,4.3h0c-1.97,3.39-.59,7.74,2.98,9.38l49.38,22.64c5.85,2.68,12.51-1.59,12.51-8.03V59.53c0-5.75-5.49-9.9-11.02-8.35l-28.4,7.98c-3.88,1.09-5.85,5.41-4.12,9.05h0Z"/>
  <path class="st1" d="M467.31,130.91c-6.29-3.73-11.2-8.82-14.75-15.25s-5.32-13.57-5.32-21.41,1.77-14.88,5.32-21.35c3.55-6.47,8.47-11.59,14.75-15.36s13.31-5.66,21.08-5.66,14.88,1.87,21.13,5.6c6.25,3.74,11.15,8.84,14.7,15.31s5.32,13.63,5.32,21.46-1.78,14.97-5.32,21.41c-3.55,6.43-8.45,11.52-14.7,15.25-6.25,3.74-13.29,5.6-21.13,5.6s-14.79-1.87-21.08-5.6h0ZM468.98,107.67c1.85,3.92,4.44,6.95,7.76,9.1,3.33,2.15,7.21,3.22,11.65,3.22s8.43-1.07,11.76-3.22c3.33-2.14,5.9-5.19,7.71-9.15s2.72-8.52,2.72-13.7-.93-9.46-2.77-13.31c-1.85-3.84-4.46-6.82-7.82-8.93-3.37-2.11-7.23-3.16-11.59-3.16s-8.23,1.07-11.59,3.22c-3.37,2.15-5.97,5.16-7.82,9.04-1.85,3.88-2.77,8.37-2.77,13.48s.92,9.5,2.77,13.42h-.01ZM539.08,76.39h15.86v7.32h.44c1.63-2.22,4.05-4.18,7.27-5.88,3.22-1.7,6.78-2.55,10.7-2.55,4.88,0,9.3,1.28,13.25,3.83,3.96,2.55,7.06,6.14,9.32,10.76,2.25,4.62,3.38,9.89,3.38,15.81s-1.2,11.39-3.61,15.97c-2.4,4.59-5.58,8.12-9.54,10.59-3.96,2.48-8.23,3.72-12.81,3.72-3.55,0-6.79-.57-9.71-1.72-2.92-1.15-5.23-2.57-6.93-4.27h-.44v29.06h-17.19v-82.64h0ZM559.71,116.82c2.37,2.85,5.44,4.27,9.21,4.27s6.73-1.4,9.09-4.21c2.37-2.81,3.55-6.54,3.55-11.2s-1.18-8.5-3.55-11.31-5.43-4.21-9.21-4.21-6.64,1.41-9.04,4.21c-2.4,2.81-3.61,6.58-3.61,11.31s1.18,8.3,3.55,11.15h0ZM644.12,90.92h-15.31v21.74c0,2.96.44,5.1,1.33,6.43s2.33,2,4.33,2c2.44,0,5.25-.59,8.43-1.77l2.11,13.75c-1.55.81-3.53,1.5-5.93,2.05-2.4.55-5.05.83-7.93.83-6.43,0-11.3-1.9-14.59-5.71-3.29-3.81-4.94-9.33-4.94-16.58v-22.74h-9.54v-14.53h9.54v-18.19h17.19v18.19h15.31s0,14.53,0,14.53ZM654.82,51.71c1.96-1.96,4.42-2.94,7.38-2.94s5.43.98,7.43,2.94,3,4.38,3,7.27-1.02,5.21-3.05,7.21c-2.04,2-4.49,3-7.38,3s-5.32-1-7.32-3-3-4.4-3-7.21.98-5.31,2.94-7.27ZM653.66,76.39h17.19v58.57h-17.19s0-58.57,0-58.57ZM764.08,78.22c3.29,1.96,5.88,4.77,7.76,8.43,1.89,3.66,2.83,7.93,2.83,12.81v35.5h-17.08v-32.5c0-4.07-.74-7.14-2.22-9.21s-3.48-3.11-5.99-3.11c-3.55,0-6.36,1.48-8.43,4.44s-3.11,6.58-3.11,10.87v29.5h-17.08v-32.5c0-4.14-.7-7.23-2.11-9.26s-3.4-3.05-5.99-3.05c-3.33,0-6.1,1.37-8.32,4.1-2.22,2.74-3.33,6.36-3.33,10.87v29.84h-17.08v-58.57h15.86v7.99h.33c4.73-6.06,10.32-9.1,16.75-9.1,4.07,0,7.39,1.02,9.98,3.05,2.59,2.03,4.47,4.53,5.66,7.49h.33c2.22-3.11,5.06-5.64,8.54-7.6,3.47-1.96,7.36-2.94,11.65-2.94s7.75.98,11.04,2.94h.01ZM788.93,51.71c1.96-1.96,4.42-2.94,7.38-2.94s5.43.98,7.43,2.94,3,4.38,3,7.27-1.02,5.21-3.05,7.21c-2.04,2-4.49,3-7.38,3s-5.32-1-7.32-3-3-4.4-3-7.21.98-5.31,2.94-7.27ZM787.76,76.39h17.19v58.57h-17.19s0-58.57,0-58.57ZM813.83,123.2l28.73-32.39h-27.29v-14.42h48.47v11.65l-28.62,32.5h29.62v14.42h-50.91v-11.76ZM912.77,133.02c-4.51,1.96-9.21,2.94-14.09,2.94-5.62,0-10.7-1.24-15.25-3.72s-8.14-6.03-10.76-10.65-3.94-10.04-3.94-16.25c0-5.62,1.28-10.72,3.83-15.31,2.55-4.58,6.04-8.19,10.48-10.81,4.44-2.62,9.39-3.94,14.86-3.94s10.67,1.29,14.92,3.88,7.52,6.16,9.82,10.7c2.29,4.55,3.44,9.63,3.44,15.25,0,2-.11,3.99-.33,5.99h-39.6c.67,3.48,2.12,6.19,4.38,8.15,2.25,1.96,5.38,2.94,9.37,2.94,2.66,0,5.21-.55,7.65-1.66s4.66-2.66,6.66-4.66l9.1,9.43c-2.51,3.18-6.03,5.75-10.54,7.71h0ZM908.55,99.47c-.15-3.18-1.2-5.79-3.16-7.82-1.96-2.03-4.38-3.05-7.27-3.05-3.33,0-5.99,1.04-7.99,3.11s-3.33,4.66-3.99,7.76h22.41ZM933.51,76.39h15.75l-.22,10.32h.44c1.7-3.62,3.86-6.43,6.49-8.43,2.62-2,5.56-3,8.82-3,2.74,0,5.47.59,8.21,1.77l-2.66,14.75c-1.92-1.11-4.33-1.66-7.21-1.66-3.85,0-6.9,1.42-9.15,4.27-2.26,2.85-3.38,6.56-3.38,11.15v29.39h-17.08v-58.57h-.01Z"/>
  <g>
    <path class="st2" d="M289.67,65.36c-3.11,0-5.66.67-7.65,2s-3,3.22-3,5.66,1.09,4.34,3.27,5.71,5.71,2.72,10.59,4.05c9.32,2.51,16.25,5.84,20.8,9.98s6.82,9.8,6.82,16.97c0,8.06-2.85,14.2-8.54,18.41-5.7,4.21-13.2,6.32-22.52,6.32-5.92,0-11.87-1.28-17.86-3.83s-10.65-5.97-13.98-10.26l10.76-11.31c6.14,6.58,13.31,9.87,21.52,9.87,3.7,0,6.69-.72,8.98-2.16s3.44-3.53,3.44-6.27c0-3.11-1.2-5.45-3.6-7.04-2.4-1.59-6.49-3.16-12.26-4.71-8.8-2.37-15.27-5.47-19.41-9.32-4.14-3.84-6.21-9.02-6.21-15.53,0-4.95,1.26-9.26,3.77-12.92,2.51-3.66,5.99-6.43,10.43-8.32s9.46-2.83,15.09-2.83,10.96,1.13,16.03,3.38c5.06,2.26,9.22,5.34,12.48,9.26l-11.42,11.2c-4.51-5.55-10.35-8.32-17.53-8.32h0Z"/>
    <path class="st2" d="M352.73,153.71c-3.74,2.85-8.71,4.27-14.92,4.27-4.44,0-8.1-.52-10.98-1.55l2.33-13.98c2.29.59,5.03.89,8.21.89,1.92,0,3.59-.59,4.99-1.77,1.4-1.18,2.66-3.11,3.77-5.77l1-2.33-23.29-59.12h19.08l12.76,37.71h.44l11.09-37.71h18.08l-23.63,65.67c-2.22,6.29-5.2,10.85-8.93,13.7h0Z"/>
    <path class="st2" d="M414.12,119.93c2.14,0,3.83-.35,5.05-1.05,1.22-.7,1.83-1.72,1.83-3.05,0-1.4-.85-2.62-2.55-3.66-1.7-1.04-4.55-2.14-8.54-3.33-7.03-2.22-12.03-4.64-15.03-7.27-3-2.62-4.49-6.27-4.49-10.93,0-3.4,1.03-6.43,3.11-9.1,2.07-2.66,4.86-4.71,8.38-6.16,3.51-1.44,7.41-2.16,11.7-2.16,4.73,0,9.17.96,13.31,2.88,4.14,1.92,7.39,4.25,9.76,6.99l-9.32,9.76c-1.77-1.63-3.98-3.01-6.6-4.16-2.63-1.15-5.08-1.72-7.38-1.72-1.92,0-3.44.33-4.55,1s-1.66,1.63-1.66,2.88.59,2.31,1.77,3.16c1.18.85,3.48,1.79,6.88,2.83,5.25,1.77,9.43,3.46,12.53,5.05,3.11,1.59,5.49,3.55,7.16,5.88,1.66,2.33,2.5,5.2,2.5,8.6s-1.05,6.43-3.16,9.1-4.99,4.73-8.65,6.21c-3.66,1.48-7.75,2.22-12.26,2.22-5.18,0-10.24-1.11-15.2-3.33-4.96-2.22-8.73-4.88-11.31-7.99l9.87-10.54c5.4,5.25,11.02,7.88,16.86,7.88h0Z"/>
  </g>
</svg>