<?xml version="1.0" encoding="UTF-8"?>
<svg id="Layer_1" xmlns="http://www.w3.org/2000/svg" version="1.1" viewBox="0 0 610.94 200">
  <!-- Generator: Adobe Illustrator 30.6.0, SVG Export Plug-In . SVG Version: 2.1.4 Build 109)  -->
  <defs>
    <style>
      .st0 {
        fill: currentColor;
      }

      .st1 {
        fill: #fff;
      }

      .st2 {
        fill: #378add;
      }
    </style>
  </defs>
  <path class="st2" d="M176.84.1H23.16C10.43.1.1,10.43.1,23.16v153.69c0,12.73,10.32,23.05,23.05,23.05h153.69c12.73,0,23.05-10.32,23.05-23.05V23.16C199.9,10.43,189.57.1,176.84.1Z"/>
  <path class="st1" d="M106.36,83.76c-2.67,5.33-9.09,7.56-14.49,5.04l-35.47-16.55v57.66l10.13-2.99c5.89-1.74,12.07,1.66,13.75,7.56h0c.85,2.98-.88,6.09-3.87,6.93l-25.45,7.15c-5.38,1.51-10.72-2.51-10.74-8.1-.07-19.68-.2-60.54-.05-81.04.04-5.85,6.12-9.68,11.42-7.21l52.27,24.36c2.71,1.26,3.84,4.51,2.5,7.19h0ZM116.21,68.22h0c2.3,4.85,7.69,7.42,12.9,6.14l13.91-3.4v57.75l-33.88-16.72c-5.14-2.54-11.37-.66-14.25,4.3h0c-1.97,3.39-.59,7.74,2.98,9.38l49.38,22.64c5.85,2.68,12.51-1.59,12.51-8.03V59.53c0-5.75-5.49-9.9-11.02-8.35l-28.4,7.98c-3.88,1.09-5.85,5.41-4.12,9.05Z"/>
  <path class="st0" d="M255.98,101.63l18.83-26.79h-18.83v-13.63h28.33l12.56-18.07h-14.55l-4.44,8.27h-21.89l15.62-29.55h22.05l-4.13,7.66h47.16v13.63h-17.76l-12.55,18.07h35.83v13.63h-16.84l18.53,26.79h-21.89l-18.68-26.79h-6.58l-18.83,26.79h-21.89ZM408.94,106.68v71.96h-24.34v-3.52h-95.85v3.52h-25.26v-71.96h25.26v9.03l7.2-8.88h88.65v-.15h24.34ZM288.74,122.3v11.79h95.85v-11.79h-95.85ZM288.74,147.72v11.94h95.85v-11.94h-95.85ZM367.14,25.69v9.34l7.35-9.34h41.95v75.94h-21.13v-2.3h-28.17v2.3h-20.98V25.69h20.98ZM367.14,41.3v44.4h28.17v-44.4h-28.17ZM422.87,82.34v-17.15l22.2-43.33h25.42l-22.2,43.33h26.79v17.15l-26.79,50.37h26.49v17h-51.9v-17l26.95-50.37h-26.95ZM422.87,161.5h51.9v17.15h-51.9v-17.15ZM481.51,71.47h97.69v14.24h-59.25l-1.23,6.74h64.61v14.09h-67.06l-.77,5.36h63.69v30.16l-21.44,17,21.44,19.6h-27.87l-8.73-7.5-9.34,7.5h-27.87l23.27-19.6-18.53-16.08-5.97,35.67h-24.5l11.94-72.12h-13.47v-14.09h15.92l1.07-6.74h-13.63v-14.24ZM481.51,40.85v-15.31l97.69-3.67v15.16l-97.69,3.83ZM483.65,67.64l-2.14-24.34h26.03l1.99,24.34h-25.88ZM556.84,135.16v-7.66h-43.94l-1.23,7.66h20.06l11.94,11.18,13.17-11.18ZM517.65,67.64l-1.99-24.34h25.88l2.14,24.34h-26.03ZM553.17,43.3h26.03l-2.14,24.34h-26.03l2.14-24.34Z"/>
</svg>