<svg xmlns="http://www.w3.org/2000/svg" viewBox="0 0 989 200">
  <defs>
    <style>
      .st0 {
        fill: #fff;
      }

      .st1 {
        fill: #378add;
      }

      .st2 {
        fill: currentColor;
      }
    </style>
  </defs>
  <path class="st1" d="M176.84.1H23.16C10.43.1.1,10.43.1,23.16v153.69c0,12.73,10.32,23.05,23.05,23.05h153.69c12.73,0,23.05-10.32,23.05-23.05V23.16c0-12.73-10.32-23.06-23.05-23.06Z"/>
  <path class="st0" d="M106.36,83.76c-2.67,5.33-9.09,7.56-14.49,5.04l-35.47-16.55v57.66l10.13-2.99c5.89-1.74,12.07,1.66,13.75,7.56h0c.85,2.98-.88,6.09-3.87,6.93l-25.45,7.15c-5.38,1.51-10.72-2.51-10.74-8.1-.07-19.68-.2-60.54-.05-81.04.04-5.85,6.12-9.68,11.42-7.21l52.27,24.36c2.71,1.26,3.84,4.51,2.5,7.19h0ZM116.21,68.22h0c2.3,4.85,7.69,7.42,12.9,6.14l13.91-3.4v57.75l-33.88-16.72c-5.14-2.54-11.37-.66-14.25,4.3h0c-1.97,3.39-.59,7.74,2.98,9.38l49.38,22.64c5.85,2.68,12.51-1.59,12.51-8.03V59.53c0-5.75-5.49-9.9-11.02-8.35l-28.4,7.98c-3.88,1.09-5.85,5.41-4.12,9.05h0Z"/>
  <path class="st2" d="M243.09,148.78l19-27.19h15.4l-19,27.19h-15.4ZM335.22,116h-26.7l-.12,28.19c0,4.97-2.48,7.45-7.45,7.45h-25.08l-1.24-11.92h19.37l.12-23.72h-39.48c-2.23-.25-3.48-1.49-3.72-3.73-.25-2.23.62-3.93,2.61-5.09,10.01-4.39,20.61-9.73,31.79-16.02-7.78.66-16.89.91-27.32.75-2.4-.25-3.72-1.53-3.97-3.85-.33-2.23.54-4.05,2.61-5.46,8.61-4.47,16.8-9.81,24.58-16.02h-33.15v-11.8h56.37c9.6,0,17.22-.25,22.85-.75,7.62-.66,14.98-1.94,22.1-3.85v12.04c-11.17,2.9-26.12,4.35-44.82,4.35h-3.6c-5.96,5.05-12.5,9.68-19.62,13.91,11.5-.41,19.62-.83,24.34-1.24,5.63-3.56,8.9-5.63,9.81-6.21h21.85c-15.15,11.01-32.2,21.4-51.16,31.17h40.23l-8.57-11.55h15.15l19.37,25.58h-15.52l-1.61-2.23ZM319.45,121.59h15.52l19.99,27.19h-15.27l-20.24-27.19ZM391.47,79c.74-1.49,2.23-4.18,4.47-8.07h12.79c-6.46,13.33-12.91,24.96-19.37,34.89,2.4-.17,7.74-.95,16.02-2.36v11.8c-11.17,1.99-20.9,3.4-29.18,4.22-2.24.25-3.77-.62-4.59-2.61-.75-1.99-.46-3.97.87-5.96,3.48-5.3,7.49-11.8,12.04-19.49-6.29.66-10.72.99-13.29.99-2.15,0-3.6-.91-4.35-2.73-.75-1.82-.54-3.73.62-5.71,6.71-12.08,12.62-23.67,17.76-34.77h13.66c-3.31,7.62-8.57,17.8-15.77,30.54,2.81-.25,5.59-.5,8.32-.74ZM406.37,137.36c-14.16,4.47-27.32,7.78-39.48,9.93v-11.92c12.58-2.32,25.74-5.75,39.48-10.31v12.29ZM463.86,103.71h-5.21v35.64h19.74l-1.24,12.29h-24.21c-4.97,0-7.45-2.48-7.45-7.45v-40.48h-10.31v7.33c0,8.28-1.2,15.52-3.6,21.73-2.57,6.7-6.87,13.2-12.91,19.49h-17.88c7.95-7.45,13.53-14.4,16.76-20.86,3.06-6.12,4.59-12.91,4.59-20.36v-7.33h-7.45c-2.98,0-4.84-1.16-5.59-3.48-.66-2.15-.12-4.26,1.61-6.33,6.21-7.45,12.29-15.69,18.25-24.71h-20.86v-11.42h28.31l-3.35-8.57h14.4l3.35,8.57h27.69v11.42h-33.4c-5.46,8.28-10.97,15.98-16.51,23.09h29.8c-2.81-5.38-5.13-9.69-6.95-12.91h13.78c3.06,5.21,7.53,14.07,13.41,26.57h-13.78c-.33-.75-.66-1.49-.99-2.24ZM510.79,80.74h4.97v71.52h-13.29v-55.75h-14.15c9.52-17.55,16.39-33.32,20.61-47.31h14.15c-2.9,9.68-7,20.2-12.29,31.54ZM576.47,86.7v52.52h25.58l-1.37,12.42h-29.92c-4.97,0-7.45-2.48-7.45-7.45v-57.49h-8.32c-.91,24.42-6.95,46.27-18.13,65.56h-16.39c7.45-12.25,12.79-23.51,16.02-33.77,2.9-9.44,4.59-20.03,5.09-31.79h-19.49v-12.54h19.62v-24.96h13.41v24.96h47.06v12.54h-25.7ZM590.88,68.95c-7.2-2.98-15.11-5.38-23.72-7.2v-11.42c9.69,2.32,17.59,4.76,23.72,7.33v11.3ZM636.2,80.74h6.83v71.52h-13.91v-59.6c-.91,1.41-1.45,2.23-1.61,2.48h-15.02c11.01-17.38,19.37-32.7,25.08-45.94h14.03c-4.3,10.43-9.44,20.94-15.4,31.54ZM688.47,94.9v43.71h37.87l-1.37,13.04h-43.09c-4.97,0-7.45-2.48-7.45-7.45v-46.93c-6.13.83-12.46,1.45-19,1.86v-12.79c6.46-.33,12.79-.95,19-1.86v-35.26h14.03v32.78c13.49-3.06,25.74-7.78,36.75-14.16v14.03c-10.51,5.63-22.76,9.98-36.75,13.04ZM788.42,126.43c2.07-.41,4.14-.87,6.21-1.37v12.04c-18.3,4.06-36.59,6.5-54.88,7.33v-11.92c3.15-.17,5.46-.33,6.95-.5V60.38c0-4.97,2.48-7.45,7.45-7.45h27.44c4.55,0,6.83,2.28,6.83,6.83v66.68ZM775.64,77.39v-12.54h-15.89v12.54h15.89ZM775.64,102.1v-13.66h-15.89v13.66h15.89ZM775.64,128.79v-15.64h-15.89v17.75c3.64-.41,8.94-1.12,15.89-2.11ZM818.35,69.19h22.1c4.97,0,7.45,2.48,7.45,7.45v67.55c0,4.97-2.48,7.45-7.45,7.45h-21.11l-1.37-12.67h16.64v-57.36h-16.27c-.42,26.9-5.92,50.45-16.51,70.65h-14.28c11.26-20.03,17.13-43.58,17.63-70.65h-10.93v-12.42h10.93v-19.99h13.16v19.99ZM929.23,117.62v26.57c0,4.97-2.48,7.45-7.45,7.45h-28.81l-1.37-12.79h23.09v-21.23h-50.91v-12.67h50.91v-12.67h-39.98v-12.54h39.98v-12.29h-44.58v-12.54h50.29c10.68,0,19.04-.25,25.08-.75,8.61-.74,16.64-2.11,24.09-4.1v12.91c-10.76,2.73-24.21,4.22-40.35,4.47v12.29h36.01v12.54h-36.01v12.67h46.69v12.67h-46.69Z"/>
</svg>