<?xml version="1.0" encoding="UTF-8"?>
<svg id="Layer_1" xmlns="http://www.w3.org/2000/svg" version="1.1" viewBox="0 0 610.94 200">
  <!-- Generator: Adobe Illustrator 30.6.0, SVG Export Plug-In . SVG Version: 2.1.4 Build 109)  -->
  <defs>
    <style>
      .st0 {
        fill: #fff;
      }

      .st1 {
        fill: #378add;
      }

      .st2 {
        fill: #a3a3a3;
      }
    </style>
  </defs>
  <path class="st1" d="M176.84.1H23.16C10.43.1.1,10.43.1,23.16v153.69c0,12.73,10.32,23.05,23.05,23.05h153.69c12.73,0,23.05-10.32,23.05-23.05V23.16C199.9,10.43,189.57.1,176.84.1Z"/>
  <path class="st0" d="M106.36,83.76c-2.67,5.33-9.09,7.56-14.49,5.04l-35.47-16.55v57.66l10.13-2.99c5.89-1.74,12.07,1.66,13.75,7.56h0c.85,2.98-.88,6.09-3.87,6.93l-25.45,7.15c-5.38,1.51-10.72-2.51-10.74-8.1-.07-19.68-.2-60.54-.05-81.04.04-5.85,6.12-9.68,11.42-7.21l52.27,24.36c2.71,1.26,3.84,4.51,2.5,7.19h0ZM116.21,68.22h0c2.3,4.85,7.69,7.42,12.9,6.14l13.91-3.4v57.75l-33.88-16.72c-5.14-2.54-11.37-.66-14.25,4.3h0c-1.97,3.39-.59,7.74,2.98,9.38l49.38,22.64c5.85,2.68,12.51-1.59,12.51-8.03V59.53c0-5.75-5.49-9.9-11.02-8.35l-28.4,7.98c-3.88,1.09-5.85,5.41-4.12,9.05Z"/>
  <path class="st2" d="M269.37,66.61c0-4.19.46-10.3,1.46-15.86,4.56-25.42,12.85-35.45,29.98-35.45,12.21,0,17.95,5.74,17.95,17.41,0,2.19-.18,4.37-.55,6.74l-.46,3.37h-15.22l.55-3.74c.27-1.82.46-3.46.46-4.92,0-3.65-1.18-5.83-4.19-5.83-5.65,0-7.84,7.2-10.57,23.69-1.18,7.11-1.82,12.3-1.82,15.95,0,5.65,1.46,7.75,4.74,7.75s5.65-2.1,7.11-11.94l.64-4.37h15.31l-.64,4.37c-2.64,18.13-11.03,24.97-24.24,24.97s-20.5-6.47-20.5-22.14ZM316.03,78.55c0-4.74.91-8.47,2.28-11.39,3.01-6.2,9.11-8.66,18.77-8.66h4.83l.91-5.01c.18-1.18.36-2.37.36-3.55,0-2.1-.82-3.01-2.46-3.01-2,0-3.01,1-3.46,3.92l-.55,3.37h-15.76l.64-3.83c1.46-8.93,8.57-13.58,20.23-13.58,13.12,0,16.95,5.56,16.95,13.3,0,1.82-.18,3.74-.64,6.2l-3.37,19.41-2.1,11.85h-12.94l-.18-5.38h-.36c-1.73,3.1-5.29,6.65-11.85,6.65-7.84,0-11.3-4.92-11.3-10.3ZM339.08,74.54l1.37-7.47h-2.1c-2.64,0-3.92,1.37-4.65,3.74-.46,1.37-.82,3.1-.82,5.1,0,2.37.73,3.55,2.46,3.55,2.55,0,3.28-2.64,3.74-4.92ZM361.68,70.44c0-2.37.27-5.01.73-7.75,2.73-16.58,10.02-25.88,24.6-25.88,11.94,0,16.95,5.74,16.95,14.85,0,1.73-.18,3.55-.55,5.56l-.37,2h-15.49l.55-3.19c.27-1.82.46-3.28.46-4.56,0-2.82-.82-4.28-2.83-4.28-3.65,0-4.56,5.19-6.38,15.76-.91,5.19-1.37,8.75-1.37,11.12,0,3.46.91,4.37,2.83,4.37,2.92,0,4.01-3.37,5.38-11.21h15.49c-2.37,13.85-8.02,21.51-22.33,21.51-12.39,0-17.68-7.2-17.68-18.32ZM420,87.57h-16.4l12.58-71.08h16.4l-4.65,25.88c2.55-3.37,5.83-5.56,10.93-5.56,5.92,0,10.12,3.74,10.12,11.3,0,1.82-.18,3.74-.46,5.47l-6.01,33.99h-16.4l5.47-30.98c.27-1.73.46-3.1.46-4.19,0-2.1-.64-3.1-2.1-3.1-2.73,0-3.65,2.37-4.47,7.29l-3.37,19.14-2.1,11.85ZM468.57,66.15c-.64,3.55-.82,6.11-.82,8.02,0,3.46,1,4.47,2.92,4.47,3.01,0,3.83-3.55,4.46-7.2h15.49c-1.82,10.57-7.84,17.31-21.32,17.31-12.76,0-17.77-7.29-17.77-17.95,0-2.37.27-5.01.73-7.75,2.83-17.04,9.93-26.24,24.51-26.24,11.57,0,16.58,5.92,16.58,16.31,0,3.37-.36,6.56-1.73,13.03h-23.05ZM470.39,56.95h7.38c.46-2.46.64-4.37.64-5.56,0-2.73-.73-4.19-2.92-4.19-2.83,0-3.83,3.1-5.1,9.75Z"/>
  <path class="st1" d="M348.24,105.05h16.86l-12.58,71.08h-16.86l12.58-71.08ZM376.21,176.13h-16.4l6.65-37.73,2.1-11.85h14.95l-.55,6.29c2.46-4.37,6.38-7.47,11.94-7.47,6.11,0,10.3,3.74,10.3,11.75,0,1.46-.09,3.19-.46,5.38l-6.01,33.62h-16.4l5.47-30.98c.27-1.73.46-3.1.46-4.19,0-2.1-.64-3.1-2.28-3.1-2.55,0-3.46,2.37-4.28,7.29l-3.37,19.14-2.1,11.85ZM406.01,165.1c0-1.37.09-2.73.46-4.46l.27-1.46h15.86l-.27,1.37c-.27,1.28-.27,2.1-.27,2.73,0,2.28.82,3.19,2.92,3.19,2.46,0,3.65-1.64,3.65-4.37,0-2.19-1.91-3.01-4.83-4.19l-4.83-2c-5.83-2.37-9.11-6.01-9.11-12.3,0-11.48,8.2-18.22,21.6-18.22s17.04,6.47,17.04,12.58c0,1.09-.09,2.1-.27,3.1l-.27,1.28h-15.76l.18-.91c.27-1.28.46-2.37.46-3.46,0-1.64-.55-2.83-2.82-2.83-2.55,0-3.74,1.82-3.74,4.19s1.64,3.37,5.01,4.83l4.65,2c5.29,2.28,9.93,5.56,9.93,12.12,0,12.03-8.57,19.04-22.14,19.04s-17.68-5.74-17.68-12.21ZM464.23,176.13h-16.4l6.65-37.73,2.1-11.85h16.4l-6.65,37.73-2.1,11.85ZM460.59,105.05h16.04l-2.73,15.22h-16.04l2.73-15.22ZM470.25,182.51c0-1.09.09-2.28.36-4.46h15.49c-.36,1.73-.36,2.73-.36,3.19,0,2.64,1.09,4.01,3.46,4.01,3.01,0,4.83-1.91,6.38-10.21l1.18-6.47h-.27c-1.55,3.19-5.38,6.56-11.12,6.56-8.47,0-12.03-6.2-12.03-15.76,0-2.37.18-5.1.82-9.11,2.73-16.13,8.66-24.88,18.96-24.88,5.29,0,9.29,2.37,10.39,6.93h.27l1.82-5.74h14.95l-2.1,11.85-5.83,32.8c-2.82,16.13-9.2,24.15-24.51,24.15-13.21,0-17.86-5.1-17.86-12.85ZM499.5,151.52c.73-4.37,1.18-7.75,1.18-10.21,0-3.55-.91-5.19-3.1-5.19-3.55,0-5.47,5.19-6.74,15.49-.46,3.55-.73,6.2-.73,8.11,0,3.64.91,4.83,2.73,4.83,3.64,0,5.19-4.28,6.65-13.03ZM534.58,176.13h-16.4l12.58-71.08h16.4l-4.65,25.88c2.55-3.37,5.83-5.56,10.93-5.56,5.92,0,10.12,3.74,10.12,11.3,0,1.82-.18,3.74-.46,5.47l-6.01,33.99h-16.4l5.47-30.98c.27-1.73.46-3.1.46-4.19,0-2.1-.64-3.1-2.1-3.1-2.73,0-3.65,2.37-4.47,7.29l-3.37,19.14-2.1,11.85ZM587.34,156.72c-.27,1.55-.46,2.83-.46,3.92,0,3.01,1.37,4.01,4.65,4.01,2.28,0,4.83-.37,6.56-.82l-2.19,12.3c-1.73.46-6.2,1.18-9.93,1.18-11.21,0-15.95-4.83-15.95-13.49,0-1.64.18-3.46.55-5.38l3.55-20.05h-7.2l2.1-11.85h7.2l1.55-9.02,17.59-6.56-2.73,15.58h11.03l-2.1,11.85h-11.03l-3.19,18.32Z"/>
</svg>